# xmcd
#
# Track frame offsets:
#  215
#  30373
#  48376
#  79843
#  94719
#  109515
#  121044
#  141574
#  173521
#  193709
#  205272
#  221645
#  239628
#  259241
#  292513
#
# Disc length: 4440 seconds
#
# Revision: 0
# Processed by: cddbd v1.5.1PL0 Copyright (c) Steve Scherf et al.
# Submitted via: Collectorz.com_Music_Collector 6.9
#
DISCID=ce11560f
DTITLE=Vários Artistas - Som da Frente - 1982-1993 1
DYEAR=2005
DGENRE=Pop/Rock Alternativo
TTITLE0=The The - Uncertain Smile
TTITLE1=M/A/R/R/S - Pump Up The Volume
TTITLE2=Mantronix - Who Is It? (Club Mix)
TTITLE3=Jesus Jones - Move Mountains (Ben Chapman 7" Mix)
TTITLE4=Stump - Charlton Heston
TTITLE5=The DB'S - Dynamite
TTITLE6=Stan Ridgway - Peg And Pete And Me
TTITLE7=Youssou N'Dour - Macoy
TTITLE8=Les Négresses Vertes - C'est Pas La Mer A Boire
TTITLE9=New Model Army - 51st State
TTITLE10=American Music Club - Johnny Mathis' Feet
TTITLE11=Cocteau Twins - Wax and Wane
TTITLE12=Morrissey - My Love Life
TTITLE13=The Cure - Shake Dog Shake
TTITLE14=Data track
EXTD=
EXTT0=
EXTT1=
EXTT2=
EXTT3=
EXTT4=
EXTT5=
EXTT6=
EXTT7=
EXTT8=
EXTT9=
EXTT10=
EXTT11=
EXTT12=
EXTT13=
EXTT14=
PLAYORDER=
